<svg xmlns="http://www.w3.org/2000/svg" width="13.786" height="11.028" viewBox="0 0 13.786 11.028" fill="none">
  <path d="M 1.379 11.028 C 0.999 11.028 0.675 10.893 0.405 10.623 C 0.135 10.353 0 10.029 0 9.65 L 0 1.379 C 0 0.999 0.135 0.675 0.405 0.405 C 0.675 0.135 0.999 0 1.379 0 L 12.407 0 C 12.786 0 13.111 0.135 13.381 0.405 C 13.651 0.675 13.786 0.999 13.786 1.379 L 13.786 9.65 C 13.786 10.029 13.651 10.353 13.381 10.623 C 13.111 10.893 12.786 11.028 12.407 11.028 L 1.379 11.028 Z M 6.893 6.203 L 1.379 2.757 L 1.379 9.65 L 12.407 9.65 L 12.407 2.757 L 6.893 6.203 Z M 6.893 4.825 L 12.407 1.379 L 1.379 1.379 L 6.893 4.825 Z M 1.379 2.757 L 1.379 1.379 L 1.379 9.65 L 1.379 2.757 Z" fill="currentColor" fill-rule="nonzero"></path>
</svg>