<svg xmlns="http://www.w3.org/2000/svg" width="8.752" height="6.457" viewBox="0 0 8.752 6.457" fill="none">
  <path d="M 3.061 6.457 L 0 3.396 L 0.765 2.631 L 3.061 4.926 L 7.987 0 L 8.752 0.765 L 3.061 6.457 Z" fill="currentColor" fill-rule="nonzero"></path>
  <path d="M 3.061 6.457 L 2.845 6.672 L 3.061 6.887 L 3.276 6.672 L 3.061 6.457 Z M 0 3.396 L -0.215 3.181 L -0.431 3.396 L -0.215 3.612 L 0 3.396 Z M 0.765 2.631 L 0.981 2.416 L 0.765 2.2 L 0.55 2.416 L 0.765 2.631 Z M 3.061 4.926 L 2.845 5.142 L 3.061 5.357 L 3.276 5.142 L 3.061 4.926 Z M 7.987 0 L 8.202 -0.215 L 7.987 -0.431 L 7.771 -0.215 L 7.987 0 Z M 8.752 0.765 L 8.967 0.981 L 9.183 0.765 L 8.967 0.55 L 8.752 0.765 Z M 3.061 6.457 L 3.276 6.241 L 0.215 3.181 L 0 3.396 L -0.215 3.612 L 2.845 6.672 L 3.061 6.457 Z M 0 3.396 L 0.215 3.612 L 0.981 2.846 L 0.765 2.631 L 0.55 2.416 L -0.215 3.181 L 0 3.396 Z M 0.765 2.631 L 0.55 2.846 L 2.845 5.142 L 3.061 4.926 L 3.276 4.711 L 0.981 2.416 L 0.765 2.631 Z M 3.061 4.926 L 3.276 5.142 L 8.202 0.215 L 7.987 0 L 7.771 -0.215 L 2.845 4.711 L 3.061 4.926 Z M 7.987 0 L 7.771 0.215 L 8.537 0.981 L 8.752 0.765 L 8.967 0.55 L 8.202 -0.215 L 7.987 0 Z M 8.752 0.765 L 8.537 0.55 L 2.845 6.241 L 3.061 6.457 L 3.276 6.672 L 8.967 0.981 L 8.752 0.765 Z" fill="currentColor" fill-rule="nonzero"></path>
</svg>