<svg xmlns="http://www.w3.org/2000/svg" width="17.953" height="17.953" viewBox="0 0 17.953 17.953" fill="none">
  <path d="M 16.457 4.284 C 16.457 4.284 15.204 3.511 14.961 3.269 L 11.069 0.643 C 9.798 -0.214 8.155 -0.214 6.884 0.643 L 1.648 4.176 C 0.616 4.872 0 6.031 0 7.276 L 0 14.214 C 0 16.276 1.678 17.953 3.74 17.953 L 5.984 17.953 C 6.398 17.953 6.733 17.618 6.733 17.206 L 6.733 11.222 C 6.733 10.81 7.068 10.474 7.481 10.474 L 10.473 10.474 C 10.886 10.474 11.221 10.81 11.221 11.222 L 11.221 17.206 C 11.221 17.618 11.555 17.953 11.969 17.953 L 14.213 17.953 C 16.276 17.953 17.953 16.276 17.953 14.214 L 17.953 7.276 C 17.953 6.094 17.397 4.989 16.457 4.284 Z M 16.457 14.214 C 16.457 15.451 15.45 16.458 14.213 16.458 L 12.717 16.458 L 12.717 11.222 C 12.717 9.985 11.71 8.978 10.473 8.978 L 7.481 8.978 C 6.243 8.978 5.236 9.985 5.236 11.222 L 5.236 16.458 L 3.74 16.458 C 2.503 16.458 1.496 15.451 1.496 14.214 L 1.496 7.276 C 1.496 6.529 1.866 5.833 2.485 5.416 L 7.721 1.883 C 8.485 1.368 9.469 1.368 10.231 1.883 L 15.468 5.416 C 16.087 5.833 16.457 6.529 16.457 7.276 L 16.457 14.214 Z" fill="currentColor" fill-rule="nonzero"></path>
  <path d="M 16.457 4.284 L 17.113 3.41 L 17.073 3.381 L 17.031 3.354 L 16.457 4.284 Z M 14.961 3.269 L 15.734 2.496 L 15.659 2.422 L 15.572 2.363 L 14.961 3.269 Z M 11.069 0.643 L 11.68 -0.263 L 11.68 -0.263 L 11.069 0.643 Z M 6.884 0.643 L 6.273 -0.263 L 6.273 -0.263 L 6.884 0.643 Z M 1.648 4.176 L 1.037 3.27 L 1.037 3.27 L 1.648 4.176 Z M 16.457 14.214 L 17.55 14.214 L 17.55 14.214 L 16.457 14.214 Z M 12.717 16.458 L 11.624 16.458 L 11.624 17.55 L 12.717 17.55 L 12.717 16.458 Z M 5.236 16.458 L 5.236 17.55 L 6.329 17.55 L 6.329 16.458 L 5.236 16.458 Z M 2.485 5.416 L 3.096 6.322 L 3.096 6.322 L 2.485 5.416 Z M 7.721 1.883 L 7.111 0.977 L 7.11 0.977 L 7.721 1.883 Z M 10.231 1.883 L 9.62 2.789 L 9.62 2.789 L 10.231 1.883 Z M 15.468 5.416 L 14.857 6.322 L 14.857 6.322 L 15.468 5.416 Z M 16.457 7.276 L 15.364 7.276 L 15.364 7.276 L 16.457 7.276 Z M 16.457 4.284 C 17.031 3.354 17.031 3.354 17.031 3.354 C 17.031 3.354 17.031 3.354 17.031 3.354 C 17.031 3.354 17.031 3.354 17.031 3.354 C 17.031 3.354 17.031 3.354 17.03 3.354 C 17.03 3.354 17.029 3.353 17.028 3.353 C 17.026 3.351 17.023 3.349 17.018 3.347 C 17.01 3.341 16.997 3.333 16.98 3.323 C 16.947 3.302 16.898 3.272 16.839 3.235 C 16.721 3.161 16.562 3.059 16.396 2.952 C 16.229 2.843 16.062 2.732 15.926 2.636 C 15.763 2.522 15.717 2.479 15.734 2.496 L 14.961 3.269 L 14.189 4.041 C 14.327 4.179 14.528 4.325 14.669 4.424 C 14.836 4.541 15.028 4.669 15.204 4.783 C 15.382 4.899 15.552 5.007 15.676 5.085 C 15.738 5.124 15.79 5.156 15.826 5.179 C 15.844 5.19 15.858 5.199 15.868 5.205 C 15.873 5.208 15.877 5.21 15.879 5.212 C 15.881 5.213 15.882 5.213 15.882 5.214 C 15.883 5.214 15.883 5.214 15.883 5.214 C 15.883 5.214 15.884 5.214 15.884 5.214 C 15.884 5.214 15.884 5.214 15.884 5.214 C 15.884 5.214 15.884 5.214 16.457 4.284 Z M 14.961 3.269 L 15.572 2.363 L 11.68 -0.263 L 11.069 0.643 L 10.458 1.549 L 14.35 4.175 L 14.961 3.269 Z M 11.069 0.643 L 11.68 -0.263 C 10.04 -1.369 7.914 -1.369 6.273 -0.263 L 6.884 0.643 L 7.495 1.549 C 8.397 0.941 9.556 0.941 10.458 1.549 L 11.069 0.643 Z M 6.884 0.643 L 6.273 -0.263 L 1.037 3.27 L 1.648 4.176 L 2.259 5.082 L 7.496 1.549 L 6.884 0.643 Z M 1.648 4.176 L 1.037 3.27 C -0.296 4.17 -1.093 5.667 -1.093 7.276 L 0 7.276 L 1.093 7.276 C 1.093 6.394 1.528 5.575 2.259 5.082 L 1.648 4.176 Z M 0 7.276 L -1.093 7.276 L -1.093 14.214 L 0 14.214 L 1.093 14.214 L 1.093 7.276 L 0 7.276 Z M 0 14.214 L -1.093 14.214 C -1.093 16.88 1.075 19.046 3.74 19.046 L 3.74 17.953 L 3.74 16.861 C 2.281 16.861 1.093 15.672 1.093 14.214 L 0 14.214 Z M 3.74 17.953 L 3.74 19.046 L 5.984 19.046 L 5.984 17.953 L 5.984 16.861 L 3.74 16.861 L 3.74 17.953 Z M 5.984 17.953 L 5.984 19.046 C 7.002 19.046 7.825 18.221 7.825 17.206 L 6.733 17.206 L 5.64 17.206 C 5.64 17.015 5.794 16.861 5.984 16.861 L 5.984 17.953 Z M 6.733 17.206 L 7.825 17.206 L 7.825 11.222 L 6.733 11.222 L 5.64 11.222 L 5.64 17.206 L 6.733 17.206 Z M 6.733 11.222 L 7.825 11.222 C 7.825 11.413 7.672 11.567 7.481 11.567 L 7.481 10.474 L 7.481 9.382 C 6.464 9.382 5.64 10.207 5.64 11.222 L 6.733 11.222 Z M 7.481 10.474 L 7.481 11.567 L 10.473 11.567 L 10.473 10.474 L 10.473 9.382 L 7.481 9.382 L 7.481 10.474 Z M 10.473 10.474 L 10.473 11.567 C 10.282 11.567 10.128 11.413 10.128 11.222 L 11.221 11.222 L 12.314 11.222 C 12.314 10.207 11.49 9.382 10.473 9.382 L 10.473 10.474 Z M 11.221 11.222 L 10.128 11.222 L 10.128 17.206 L 11.221 17.206 L 12.314 17.206 L 12.314 11.222 L 11.221 11.222 Z M 11.221 17.206 L 10.128 17.206 C 10.128 18.221 10.951 19.046 11.969 19.046 L 11.969 17.953 L 11.969 16.861 C 12.159 16.861 12.314 17.015 12.314 17.206 L 11.221 17.206 Z M 11.969 17.953 L 11.969 19.046 L 14.213 19.046 L 14.213 17.953 L 14.213 16.861 L 11.969 16.861 L 11.969 17.953 Z M 14.213 17.953 L 14.213 19.046 C 16.879 19.046 19.046 16.88 19.046 14.214 L 17.953 14.214 L 16.861 14.214 C 16.861 15.672 15.672 16.861 14.213 16.861 L 14.213 17.953 Z M 17.953 14.214 L 19.046 14.214 L 19.046 7.276 L 17.953 7.276 L 16.861 7.276 L 16.861 14.214 L 17.953 14.214 Z M 17.953 7.276 L 19.046 7.276 C 19.046 5.748 18.327 4.32 17.113 3.41 L 16.457 4.284 L 15.802 5.159 C 16.467 5.658 16.861 6.439 16.861 7.276 L 17.953 7.276 Z M 16.457 14.214 L 15.365 14.214 C 15.365 14.847 14.847 15.365 14.213 15.365 L 14.213 16.458 L 14.213 17.55 C 16.054 17.55 17.55 16.055 17.55 14.214 L 16.457 14.214 Z M 14.213 16.458 L 14.213 15.365 L 12.717 15.365 L 12.717 16.458 L 12.717 17.55 L 14.213 17.55 L 14.213 16.458 Z M 12.717 16.458 L 13.81 16.458 L 13.81 11.222 L 12.717 11.222 L 11.624 11.222 L 11.624 16.458 L 12.717 16.458 Z M 12.717 11.222 L 13.81 11.222 C 13.81 9.381 12.313 7.886 10.473 7.886 L 10.473 8.978 L 10.473 10.071 C 11.107 10.071 11.624 10.589 11.624 11.222 L 12.717 11.222 Z M 10.473 8.978 L 10.473 7.886 L 7.481 7.886 L 7.481 8.978 L 7.481 10.071 L 10.473 10.071 L 10.473 8.978 Z M 7.481 8.978 L 7.481 7.886 C 5.64 7.886 4.144 9.381 4.144 11.222 L 5.236 11.222 L 6.329 11.222 C 6.329 10.589 6.847 10.071 7.481 10.071 L 7.481 8.978 Z M 5.236 11.222 L 4.144 11.222 L 4.144 16.458 L 5.236 16.458 L 6.329 16.458 L 6.329 11.222 L 5.236 11.222 Z M 5.236 16.458 L 5.236 15.365 L 3.74 15.365 L 3.74 16.458 L 3.74 17.55 L 5.236 17.55 L 5.236 16.458 Z M 3.74 16.458 L 3.74 15.365 C 3.106 15.365 2.589 14.847 2.589 14.214 L 1.496 14.214 L 0.403 14.214 C 0.403 16.055 1.9 17.55 3.74 17.55 L 3.74 16.458 Z M 1.496 14.214 L 2.589 14.214 L 2.589 7.276 L 1.496 7.276 L 0.403 7.276 L 0.403 14.214 L 1.496 14.214 Z M 1.496 7.276 L 2.589 7.276 C 2.589 6.892 2.778 6.536 3.096 6.322 L 2.485 5.416 L 1.875 4.51 C 0.953 5.131 0.403 6.166 0.403 7.276 L 1.496 7.276 Z M 2.485 5.416 L 3.096 6.322 L 8.333 2.789 L 7.721 1.883 L 7.11 0.977 L 1.874 4.51 L 2.485 5.416 Z M 7.721 1.883 L 8.332 2.789 C 8.726 2.523 9.227 2.523 9.62 2.789 L 10.231 1.883 L 10.843 0.977 C 9.711 0.213 8.243 0.214 7.111 0.977 L 7.721 1.883 Z M 10.231 1.883 L 9.62 2.789 L 14.857 6.322 L 15.468 5.416 L 16.079 4.51 L 10.842 0.977 L 10.231 1.883 Z M 15.468 5.416 L 14.857 6.322 C 15.175 6.536 15.364 6.892 15.364 7.276 L 16.457 7.276 L 17.549 7.276 C 17.549 6.166 17 5.131 16.078 4.51 L 15.468 5.416 Z M 16.457 7.276 L 15.364 7.276 L 15.365 14.214 L 16.457 14.214 L 17.55 14.214 L 17.549 7.276 L 16.457 7.276 Z" fill="currentColor" fill-rule="nonzero"></path>
</svg>