<svg xmlns="http://www.w3.org/2000/svg" width="16.687" height="15.548" viewBox="0 0 16.687 15.548" fill="none">
  <path d="M 7.968 4.38 L 1.817 10.537 L 0 12.362 C 0 12.362 1.049 12.536 1.722 12.49 C 2.472 12.438 3.598 12.053 3.598 12.053 L 0.668 13.904 L 3.598 13.904 L 3.598 14.777 L 6.553 13.261 L 6.939 14.058 L 7.71 14.058 L 8.095 15.06 L 7.324 14.777 L 6.553 15.548 L 10.64 15.548 L 9.483 14.341 L 8.457 14.957 L 8.455 12.362 L 9.149 12.053 L 9.149 12.67 L 11.745 13.056 L 11.745 13.698 L 13.621 13.056 L 13.621 15.189 L 14.829 14.058 L 13.904 12.67 L 11.745 12.67 L 11.745 10.64 L 13.621 9.766 L 13.621 10.64 L 15.424 9.064 L 15.424 4.786 L 16.687 4.786 L 13.387 1.582 L 14.12 1.582 L 12.491 0 L 9.72 0 L 8.172 1.582 L 6.827 1.582 L 5.238 3.123 L 8.457 3.123 L 9.72 4.38 L 7.968 4.38 Z" fill="currentColor" fill-rule="nonzero"></path>
</svg>