<svg xmlns="http://www.w3.org/2000/svg" width="37.113" height="34.580" viewBox="0 0 37.113 34.580" fill="none">
  <path d="M 17.722 9.742 L 4.042 23.435 L 0 27.493 C 0 27.493 2.333 27.882 3.83 27.779 C 5.499 27.664 8.002 26.807 8.002 26.807 L 1.486 30.922 L 8.002 30.922 L 8.002 32.866 L 14.575 29.493 L 15.433 31.265 L 17.147 31.265 L 18.005 33.494 L 16.29 32.866 L 14.575 34.58 L 23.663 34.58 L 21.091 31.894 L 18.809 33.266 L 18.805 27.493 L 20.348 26.807 L 20.348 28.179 L 26.121 29.036 L 26.121 30.465 L 30.294 29.036 L 30.294 33.78 L 32.98 31.265 L 30.922 28.179 L 26.121 28.179 L 26.121 23.663 L 30.294 21.72 L 30.294 23.663 L 34.304 20.159 L 34.304 10.644 L 37.113 10.644 L 29.773 3.518 L 31.404 3.518 L 27.78 0 L 21.618 0 L 18.175 3.518 L 15.185 3.518 L 11.651 6.946 L 18.809 6.946 L 21.618 9.742 L 17.722 9.742 Z" fill="currentColor" fill-rule="nonzero"></path>
</svg>